<svg width="124" height="72" viewBox="0 0 124 72" fill="none" xmlns="http://www.w3.org/2000/svg">
<path d="M0 28C0 12.536 12.536 0 28 0H95.8242C111.288 0 123.824 12.536 123.824 28C123.824 43.464 111.288 56 95.8242 56H28C12.536 56 0 43.464 0 28Z" fill="#33414B"/>
<path d="M36.8789 12.7933H37.0689C37.981 12.7933 38.6176 13.7245 38.6176 14.5558C38.6176 15.0309 38.399 15.7862 37.3539 19.4252C37.0546 20.4751 36.6841 21.7625 36.228 23.3492L31.7482 12.38H31.2019L27.5677 23.3302C26.4371 19.7482 25.715 17.4917 25.2779 16.1283C24.5416 13.8242 24.5273 13.7767 24.5321 13.5867C24.5321 13.5629 24.5321 13.5344 24.5321 13.5059C24.5321 13.3064 24.6033 13.1401 24.7411 13.0309C24.8124 12.9739 25.0641 12.8361 25.9097 12.7933L26.0903 12.7838V12.38H20V12.7886H20.1853C20.7411 12.8124 21.3919 12.9691 21.5582 13.0879L21.5867 13.1069C21.8464 13.2906 22.4513 14.9359 23.4014 18.0428L23.4157 18.0855C23.9905 19.962 24.7743 22.5321 25.8955 26.133L25.9192 26.2043L25.9905 26.1948C26.3753 26.1378 26.7553 26.076 27.1354 26.019L27.1876 26.0095L30.5178 15.9002L34.114 24.8504L34.1805 24.8409C34.9121 24.7173 35.639 24.5986 36.361 24.4846L36.4133 24.4751L39.1069 14.9596C39.3397 14.1853 39.9287 12.8741 41.2352 12.7933L41.4157 12.7838V12.38H36.8789V12.7933Z" fill="#F6F6F6"/>
<path d="M42.2613 23.62C42.3468 23.4062 42.4371 23.1829 42.5416 22.9406L43.0499 21.7102H48L48.6556 23.3064H48.7126C49.5249 23.3064 50.3563 23.3207 51.1876 23.3444H51.3159L49.1734 18.1995C48.0475 15.4917 46.8931 12.7316 46.7601 12.4181L46.5843 12L42.19 22.5843C42 23.0214 41.8527 23.3729 41.7625 23.6057L41.7102 23.734L42.2375 23.6722L42.2565 23.6247L42.2613 23.62ZM43.2257 21.2637L45.5202 15.7102L47.829 21.2637H43.2257Z" fill="#F6F6F6"/>
<path d="M52.9739 16.8219C53.0831 16.1473 53.4109 14.095 53.6912 13.658C53.9667 13.2304 54.1378 12.9834 54.3895 12.9169C54.6176 12.8599 55.1259 12.7933 56.247 12.7933H58.2233V23.6912L58.2993 23.696C59.0689 23.753 59.8432 23.81 60.6128 23.8765L60.7031 23.886V12.7933H62.8599C63.6342 12.7933 64.1853 12.8409 64.4941 12.9311C64.7648 13.0119 64.9596 13.2447 65.2209 13.639C65.3064 13.772 65.5534 14.342 65.9715 16.8219L66 16.9786H66.3848L66.3135 12.3753H52.6081L52.5178 16.9786H52.9406L52.9644 16.8171L52.9739 16.8219Z" fill="#F6F6F6"/>
<path d="M77.943 25.5439L77.8385 25.6675L78 25.6865C78.4513 25.734 78.9026 25.7815 79.3492 25.829L79.4347 25.8385L79.6817 22.5986H79.2779L79.2446 22.7458C78.9976 23.772 78.6461 24.6081 78.209 25.2257C78.133 25.3349 78.0475 25.4394 77.9477 25.5534L77.943 25.5439Z" fill="#F6F6F6"/>
<path d="M69.0974 12.9786C69.2779 13.0879 69.3967 13.3017 69.4347 13.5819C69.4822 13.9002 69.5154 15.0356 69.5154 16.2138V23.5202C69.5154 23.9905 69.5154 24.361 69.5012 24.6651V24.7411L69.5772 24.7506C70.3705 24.8361 71.1639 24.9216 71.9477 25.0119L72.0475 25.0214V24.9216C72.0095 24.4846 71.9952 23.9477 71.9952 23.3254V19.5107H73.4157C74.0522 19.5107 74.4561 19.5439 74.6888 19.6152C74.9074 19.6817 75.0784 19.8337 75.1829 20.057C75.2732 20.2423 75.3634 21.0499 75.3634 22.076V22.266H75.7957V16.8789H75.3634V17.0689C75.3634 17.9097 75.2969 18.285 75.2399 18.4513C75.1781 18.6366 75.0309 18.7791 74.7791 18.8979C74.5416 19.0071 74.095 19.0594 73.3682 19.0594H72V12.8124H73.8432C74.8076 12.8124 75.3397 12.8551 75.8005 12.9691C76.2328 13.0784 76.6033 13.3254 76.8931 13.7055C77.1876 14.0903 77.677 15.2304 77.9097 16.2565L77.943 16.4038H78.3515L77.9715 12.3753H67.6104V12.7886H67.8005C68.4703 12.7886 68.9026 12.8504 69.0974 12.9739V12.9786Z" fill="#F6F6F6"/>
<path d="M95.6152 26.6223C94.9359 26.5463 94.3373 26.3183 93.8337 25.9477C93.2019 25.4964 92.342 24.5273 91.2636 23.0641C90.1473 21.5677 89.2969 20.5986 88.6746 20.1093C89.829 19.905 90.7411 19.4869 91.3872 18.8694C92.1235 18.1663 92.4988 17.2969 92.4988 16.285C92.4988 15.4109 92.209 14.6556 91.6437 14.038C91.0831 13.4252 90.342 12.9739 89.4394 12.7031C88.5796 12.4418 87.4489 12.3183 85.9857 12.3183C85.1781 12.3183 80.6081 12.3658 80.5653 12.3658H80.3753V12.8124H80.8123C81.5392 12.8124 81.981 12.8646 82.1568 12.9644C82.323 13.0689 82.4418 13.2684 82.4941 13.5439C82.5558 13.8765 82.5891 14.6223 82.5891 15.7577V23.5249C82.5891 24.7268 82.5558 25.5059 82.4941 25.8337C82.4798 25.905 82.4608 25.9715 82.437 26.0285L82.399 26.133L82.5083 26.1425C83.4917 26.2375 84.399 26.3135 85.2731 26.3848L85.4537 26.399L85.3444 26.2518C85.2494 26.1235 85.1876 25.9572 85.1639 25.7577C85.0974 25.3919 85.0831 24.6033 85.0831 23.5202V20.1948H85.4679C85.8147 20.1948 86.0855 20.2518 86.2423 20.3563C86.3373 20.4276 86.5938 20.6603 87.2256 21.4394C87.7672 22.1045 88.2328 22.7268 88.6461 23.3349C89.7245 24.8789 90.6841 26.0143 91.5012 26.7078L91.5249 26.7268H91.5534C92.0427 26.7363 92.4893 26.7411 92.9121 26.7411C93.8385 26.7411 94.7411 26.7553 95.5914 26.7838L95.6057 26.6176L95.6152 26.6223ZM85.0974 12.7791C85.3682 12.7553 85.6009 12.7458 85.8242 12.7458C87.4822 12.7458 88.5606 13.0356 89.0309 13.6152C89.5297 14.19 89.7577 15.4869 89.7577 16.4466C89.7577 16.9644 89.7055 17.658 89.5582 18.0523C89.3919 18.4608 89.2114 18.7553 88.9786 18.9691C88.7458 19.1876 88.4275 19.3587 88.019 19.4822C87.6009 19.6105 87.1306 19.6865 86.5748 19.7197C86.2708 19.7292 85.9762 19.7435 85.6817 19.753C85.4822 19.7625 85.2874 19.772 85.0974 19.7767V12.7791Z" fill="#F6F6F6"/>
<path d="M39.7197 31.1924L39.7435 31.3064C39.9145 32.0523 40.038 33.0261 40.0998 33.5534L40.1235 33.7577H40.5368L40.4608 31.2637L39.7102 31.1971L39.7197 31.1924Z" fill="#F6F6F6"/>
<path d="M37.1164 33.6912C37.1164 34.5178 36.9834 35.0784 36.7268 35.3492C36.4846 35.6057 35.943 35.734 35.1069 35.734H33.9335V30.7031H33.8575C33.0119 30.6318 32.2375 30.5796 31.4822 30.5321H31.3872L31.3919 30.6223C31.4204 31.0214 31.4347 31.6057 31.4347 32.361V40.1283C31.4347 41.3302 31.4014 42.1093 31.3397 42.4371C31.2874 42.7078 31.1591 42.9121 30.9691 43.0499C30.7458 43.1829 30.342 43.2542 29.772 43.2542H29.1211V43.6675H36.2993V43.2542H35.6152C34.9834 43.2542 34.5701 43.1781 34.361 43.0261C34.171 42.8884 34.0523 42.6651 34.0095 42.361C33.9477 42.0143 33.9145 41.2637 33.9145 40.1283V36.1805H35.1021C35.9525 36.1805 36.3088 36.2755 36.4561 36.3563C36.6793 36.4751 36.8456 36.6983 36.9406 37.0024C37.0451 37.3349 37.1116 38.2185 37.1116 38.8504V39.0404H37.5439V33.5059H37.1116V33.696L37.1164 33.6912Z" fill="#F6F6F6"/>
<path d="M55.2399 42.5511C54.6081 42.0998 53.7482 41.1306 52.6698 39.6675C51.5534 38.171 50.7031 37.2019 50.0808 36.7126C51.2352 36.5083 52.1473 36.0903 52.7933 35.4727C53.5297 34.7696 53.905 33.9002 53.905 32.8884C53.905 32.7553 53.8955 32.6176 53.8812 32.4798L53.8717 32.4086H53.8005C52.9311 32.342 52.0665 32.2803 51.2066 32.2138L51.1069 32.2043L51.1164 32.304C51.1449 32.5606 51.1591 32.8124 51.1591 33.0499C51.1591 33.5677 51.1069 34.2613 50.9596 34.6556C50.7933 35.0641 50.6128 35.3587 50.38 35.5724C50.1473 35.791 49.829 35.962 49.4204 36.0855C49.0024 36.2138 48.5321 36.2898 47.9762 36.323C47.677 36.3325 47.3777 36.3468 47.0879 36.3563H47.0309C46.8504 36.3658 46.6746 36.3753 46.4988 36.38V31.81H46.4228C45.639 31.734 44.8599 31.6627 44.0855 31.5914L43.9905 31.5819V31.677C43.9905 31.886 43.9952 32.114 43.9952 32.3563V40.1235C43.9952 41.3254 43.962 42.1045 43.9002 42.4323C43.8432 42.7173 43.7197 42.9169 43.5297 43.0451C43.3064 43.1781 42.9026 43.2494 42.3325 43.2494H41.6675V43.6627H49.0594V43.2494H48.1615C47.5344 43.2494 47.1211 43.1734 46.9264 43.0214C46.7363 42.8836 46.6176 42.6603 46.5748 42.3563C46.5083 41.9953 46.4941 41.2019 46.4941 40.1235V36.7981H46.8789C47.2257 36.7981 47.4964 36.8551 47.6532 36.9596C47.7482 37.0309 48.0047 37.2637 48.6366 38.0428C49.1781 38.7126 49.6437 39.3302 50.057 39.9382C51.6485 42.2185 52.7126 43.2066 53.3207 43.6295L53.3682 43.6627H57.5439V43.2542H57.3587C56.5368 43.2162 55.8195 42.9786 55.2304 42.5416L55.2399 42.5511Z" fill="#F6F6F6"/>
<path d="M72.0332 32.5986H71.981C71.2066 32.6698 70.4655 32.7173 69.772 32.7506H69.6627L69.6912 32.8599C69.9952 33.8907 70.152 35.1259 70.152 36.4323C70.152 38.8124 69.6437 40.8551 68.7981 41.8955C67.9192 42.9976 66.7268 43.5297 65.1544 43.5297C63.3682 43.5297 62.0808 42.9929 61.2161 41.8955C60.38 40.8504 59.8765 38.7981 59.8765 36.4133C59.8765 35.1021 60.0332 33.8717 60.3278 32.8504L60.3563 32.7458H60.247C59.5297 32.7173 58.7886 32.6841 58.038 32.6461H57.9857L57.962 32.6888C57.3872 33.7435 57.0974 34.9739 57.0974 36.342C57.0974 38.6366 57.848 40.5036 59.3254 41.9002C60.7933 43.2874 62.7078 43.9905 65.0071 43.9905C67.3064 43.9905 69.3159 43.2874 70.7553 41.9002C72.209 40.5131 72.9501 38.6651 72.9501 36.4086C72.9501 34.9739 72.6508 33.7055 72.0617 32.6366L72.0332 32.5891V32.5986Z" fill="#F6F6F6"/>
<path d="M76.9501 42.9549C76.6033 42.7411 76.3895 42.5273 76.3278 42.323C76.2565 42.095 76.2233 41.5724 76.2233 40.7221V32.1425L75.7435 32.2043V40.7221C75.7435 41.5867 75.7102 42.133 75.6532 42.3468C75.5962 42.5558 75.4157 42.7411 75.1069 42.8979C74.7886 43.0641 74.1283 43.2019 73.3919 43.2542L73.2161 43.2684V43.6675H79.0641V43.2542H78.8741C77.9952 43.2542 77.2589 43.1401 76.9549 42.9549H76.9501Z" fill="#F6F6F6"/>
<path d="M86.5511 30.6413C86.5796 30.8551 86.5938 31.1116 86.5938 31.4109V40.1948L80.0332 31.6437L80.0047 31.6057L79.9572 31.6152C79.0736 31.7482 78.2755 31.867 77.5059 31.9715L77.3634 31.9905L86.6223 43.9287L86.6793 44H87.0784V31.5772C87.0784 31.1354 87.0974 30.8076 87.1306 30.5796L87.1496 30.4656L86.5416 30.5653L86.5511 30.6461V30.6413Z" fill="#F6F6F6"/>
<path d="M103.753 28.9834H102.057C101.387 28.9929 100.599 28.9976 99.6817 29.0071C98.5511 29.0166 97.2636 29.0974 95.734 29.2542L95.6579 29.2637V40.1283C95.6579 41.3872 95.6247 42.1188 95.5487 42.4371C95.4917 42.7221 95.3682 42.9216 95.1734 43.0546C94.9739 43.1829 94.5416 43.2542 93.981 43.2542H93.0356V43.6675H100.708V43.2542H99.81C99.1876 43.2542 98.7838 43.1781 98.5748 43.0261C98.3848 42.8884 98.266 42.6698 98.228 42.3658C98.1758 41.9858 98.1473 41.1876 98.1473 40.1235V29.3967H100.304C101.083 29.3967 101.629 29.4442 101.938 29.5344C102.209 29.6152 102.404 29.848 102.665 30.2423C102.893 30.5891 103.207 32.4751 103.354 33.3824L103.439 33.9002H103.824L103.753 28.9786V28.9834Z" fill="#F6F6F6"/>
<path d="M90.0998 29.9953L90.0285 30.0048L89.9572 33.905H90.38L90.4038 33.7435C90.4228 33.62 90.4465 33.4774 90.4703 33.3159C90.6176 32.3753 90.8884 30.6271 91.1211 30.2613C91.1971 30.1473 91.2589 30.0428 91.3254 29.9572L91.4394 29.7957L91.2447 29.8242C90.8646 29.8812 90.4846 29.9382 90.095 29.9953H90.0998Z" fill="#F6F6F6"/>
<path d="M62 72L56 56H68L62 72Z" fill="#33414B"/>
</svg>
