<svg width="282" height="72" viewBox="0 0 282 72" fill="none" xmlns="http://www.w3.org/2000/svg">
<g clip-path="url(#clip0_712_6414)">
<path d="M171.31 43.0057C171.31 43.8041 171.461 44.5448 171.738 45.2275C172.016 45.9102 172.409 46.512 172.907 47.0211C173.405 47.5303 173.995 47.9352 174.689 48.2244C175.372 48.5022 176.124 48.6526 176.922 48.6526C177.721 48.6526 178.415 48.5022 179.109 48.2244C179.792 47.9467 180.394 47.5418 180.891 47.0211C181.389 46.512 181.794 45.9102 182.095 45.2506C182.407 44.5795 182.558 43.8621 182.558 43.0984C182.558 42.3347 182.407 41.6056 182.095 40.9114C181.782 40.2171 181.389 39.6269 180.891 39.1177C180.394 38.6086 179.804 38.2037 179.109 37.9144C178.427 37.6367 177.698 37.4863 176.922 37.4863C176.147 37.4863 175.372 37.6367 174.689 37.9144C174.006 38.1921 173.405 38.597 172.907 39.1177C172.409 39.6384 172.016 40.2055 171.738 40.8766C171.461 41.5478 171.31 42.242 171.31 43.0057ZM182.268 30.7864H191.016V55.3757H182.268V52.6332C180.405 54.9707 177.883 56.1278 174.712 56.1278C172.919 56.1278 171.264 55.8037 169.76 55.1441C168.244 54.4846 166.936 53.5704 165.825 52.3901C164.703 51.1983 163.835 49.8097 163.21 48.2244C162.585 46.6276 162.261 44.8803 162.261 43.0057C162.261 41.2469 162.574 39.5806 163.175 38.0069C163.777 36.4332 164.633 35.0447 165.721 33.8644C166.809 32.6725 168.105 31.7468 169.621 31.0641C171.137 30.3813 172.791 30.0342 174.62 30.0342C177.698 30.0342 180.243 31.0988 182.268 33.2395V30.7979H182.257L182.268 30.7864Z" fill="#33414B"/>
<path d="M262.771 43.0057C262.771 43.8041 262.921 44.5448 263.199 45.2275C263.477 45.9102 263.87 46.512 264.368 47.0211C264.865 47.5303 265.455 47.9352 266.15 48.2244C266.832 48.5022 267.584 48.6526 268.383 48.6526C269.181 48.6526 269.876 48.5022 270.57 48.2244C271.253 47.9467 271.854 47.5418 272.352 47.0211C272.85 46.512 273.254 45.9102 273.555 45.2506C273.868 44.5795 274.018 43.8621 274.018 43.0984C274.018 42.3347 273.868 41.6056 273.555 40.9114C273.243 40.2171 272.85 39.6269 272.352 39.1177C271.854 38.6086 271.264 38.2037 270.57 37.9144C269.887 37.6367 269.158 37.4863 268.383 37.4863C267.608 37.4863 266.832 37.6367 266.15 37.9144C265.467 38.1921 264.865 38.597 264.368 39.1177C263.87 39.6269 263.477 40.2055 263.199 40.8766C262.921 41.5362 262.771 42.242 262.771 43.0057ZM273.752 30.7864H282.5V55.3757H273.752V52.6332C271.889 54.9707 269.366 56.1278 266.196 56.1278C264.402 56.1278 262.748 55.8037 261.243 55.1441C259.727 54.4846 258.42 53.5704 257.309 52.3901C256.187 51.1983 255.319 49.8097 254.694 48.2244C254.069 46.6276 253.745 44.8803 253.745 43.0057C253.745 41.1311 254.057 39.5806 254.659 38.0069C255.261 36.4332 256.117 35.0447 257.205 33.8644C258.293 32.6725 259.589 31.7468 261.104 31.0641C262.62 30.3813 264.275 30.0342 266.103 30.0342C269.181 30.0342 271.727 31.0988 273.752 33.2395V30.7979H273.74L273.752 30.7864Z" fill="#33414B"/>
<path d="M20.465 55.3745L14.6214 43.2822L8.6737 55.3745H-1L11.798 30.7852H17.5953L30.2429 55.3745H20.465Z" fill="#33414B"/>
<path d="M40.3563 30.7861V34.813C41.282 33.3434 42.416 32.2209 43.7583 31.4225C45.089 30.6356 46.6743 30.2539 48.4563 30.2539H49.1969C49.463 30.2539 49.7754 30.277 50.1226 30.3464V38.6432C48.977 38.0646 47.7273 37.7753 46.385 37.7753C44.3716 37.7753 42.8673 38.3654 41.849 39.5688C40.8307 40.7723 40.3331 42.5196 40.3331 44.8107V55.3523H31.6661V30.763H40.3563V30.7861Z" fill="#33414B"/>
<path d="M70.3147 38.7246C68.822 37.6948 67.2946 37.1857 65.7556 37.1857C64.9224 37.1857 64.1471 37.3361 63.4413 37.6138C62.7239 37.8915 62.0874 38.3196 61.5551 38.8403C61.0113 39.361 60.5832 39.9859 60.2823 40.7149C59.9699 41.4323 59.8194 42.2423 59.8194 43.1333C59.8194 44.0243 59.9699 44.788 60.2823 45.5055C60.5832 46.2229 60.9997 46.8593 61.5204 47.38C62.0411 47.9008 62.6775 48.3058 63.4065 48.6067C64.1355 48.8844 64.9224 49.0348 65.7556 49.0348C67.3871 49.0348 68.903 48.4793 70.3147 47.3569V54.7279C68.174 55.6536 66.149 56.1165 64.2281 56.1165C62.4346 56.1165 60.7336 55.8041 59.1252 55.2023C57.5052 54.6006 56.0934 53.7212 54.8668 52.5872C53.6402 51.4532 52.6567 50.0877 51.9161 48.514C51.1755 46.9403 50.8053 45.1699 50.8053 43.2144C50.8053 41.2588 51.1524 39.4768 51.8583 37.8684C52.5641 36.2484 53.513 34.8598 54.728 33.7027C55.943 32.5455 57.3894 31.6314 59.0672 30.9602C60.7451 30.3007 62.5503 29.9766 64.4596 29.9766C66.5656 29.9766 68.5211 30.4163 70.3147 31.3305V38.7015H70.3031L70.3147 38.7246Z" fill="#33414B"/>
<path d="M74.2144 15.5811H82.8813V33.887C84.0732 32.4406 85.2535 31.4917 86.48 30.9826C87.695 30.485 89.1068 30.2421 90.7383 30.2421C93.8395 30.2421 96.1769 31.0868 97.7622 32.7994C99.3359 34.5119 100.134 36.8146 100.134 39.7191V55.3405H91.4673V42.9359C91.4673 41.6978 91.3748 40.6795 91.1896 39.9158C91.0045 39.1521 90.6805 38.5504 90.2292 38.1454C89.4655 37.4742 88.5282 37.1386 87.4521 37.1386C85.9825 37.1386 84.8485 37.5784 84.0617 38.4578C83.2748 39.3372 82.8929 40.5869 82.8929 42.2185V55.3521H74.2259V15.5811H74.2144Z" fill="#33414B"/>
<path d="M114.043 18.7288C113.742 18.0461 113.326 17.4329 112.817 16.9122C112.296 16.3915 111.682 15.9864 111 15.6855C110.294 15.3731 109.565 15.2227 108.778 15.2227C107.991 15.2227 107.251 15.3731 106.568 15.6624C105.885 15.9632 105.272 16.3799 104.751 16.889C104.231 17.4097 103.826 18.023 103.525 18.7057C103.224 19.3884 103.085 20.1406 103.085 20.9159C103.085 21.6911 103.235 22.4433 103.525 23.126C103.826 23.8088 104.242 24.422 104.751 24.9427C105.272 25.4634 105.885 25.8685 106.568 26.1693C107.251 26.4702 108.003 26.609 108.778 26.609C109.553 26.609 110.305 26.4586 110.988 26.1693C111.671 25.8685 112.284 25.4518 112.805 24.9427C113.326 24.422 113.731 23.8088 114.031 23.126C114.332 22.4433 114.471 21.6911 114.471 20.9159C114.471 20.1406 114.321 19.3884 114.031 18.7057H114.043V18.7288Z" fill="#33414B"/>
<path d="M221.924 18.7288C221.623 18.0461 221.206 17.4329 220.697 16.9122C220.176 16.3915 219.563 15.9864 218.88 15.6855C218.174 15.3731 217.434 15.2227 216.659 15.2227C215.883 15.2227 215.131 15.3731 214.448 15.6624C213.766 15.9632 213.152 16.3799 212.632 16.889C212.111 17.4097 211.706 18.023 211.405 18.7057C211.104 19.3884 210.965 20.1406 210.965 20.9159C210.965 21.6911 211.116 22.4433 211.405 23.126C211.706 23.8088 212.123 24.422 212.632 24.9427C213.152 25.4634 213.766 25.8685 214.448 26.1693C215.131 26.4702 215.883 26.609 216.659 26.609C217.434 26.609 218.186 26.4586 218.869 26.1693C219.551 25.8685 220.165 25.4518 220.685 24.9427C221.206 24.422 221.611 23.8088 221.912 23.126C222.213 22.4433 222.352 21.6911 222.352 20.9159C222.352 20.1406 222.201 19.3884 221.912 18.7057H221.924V18.7288Z" fill="#33414B"/>
<path d="M113.117 30.7852H104.45V55.3745H113.117V30.7852Z" fill="#33414B"/>
<path d="M126.263 30.7854V33.8056C128.623 31.5375 131.285 30.4035 134.224 30.4035C137.869 30.4035 140.646 31.9426 142.555 34.9974C144.499 31.8963 147.288 30.3457 150.887 30.3457C152.032 30.3457 153.12 30.5076 154.15 30.8432C155.18 31.1788 156.047 31.7112 156.776 32.417C157.505 33.1345 158.096 34.0717 158.535 35.2172C158.963 36.3628 159.183 37.7513 159.183 39.3829V55.34H150.516V43.2131C150.516 41.975 150.424 40.9451 150.25 40.1467C150.077 39.3482 149.822 38.735 149.486 38.2721C149.151 37.8324 148.757 37.5199 148.318 37.3695C147.878 37.2075 147.392 37.1265 146.871 37.1265C144.094 37.1265 142.706 39.1516 142.706 43.2131V55.34H134.039V43.2131C134.039 41.975 133.958 40.9335 133.796 40.1235C133.634 39.3135 133.402 38.6656 133.09 38.1796C132.777 37.6936 132.384 37.3696 131.921 37.196C131.435 37.0225 130.88 36.9298 130.243 36.9298C129.699 36.9298 129.19 37.0109 128.704 37.1729C128.218 37.3349 127.802 37.6472 127.431 38.0985C127.073 38.5614 126.772 39.2094 126.563 40.0078C126.355 40.8063 126.251 41.8824 126.251 43.19V55.3168H117.584V30.7623H126.274L126.263 30.7854Z" fill="#33414B"/>
<path d="M205.492 38.0179V55.3519H196.825V38.0179H193.956V30.7742H196.825V23.3916H205.492V30.7742H210.433V38.0179H205.492Z" fill="#33414B"/>
<path d="M220.986 30.7852H212.319V55.3745H220.986V30.7852Z" fill="#33414B"/>
<path d="M234.143 15.5811V39.6497L243.238 30.7859H255.122L242.81 42.1374L255.851 55.3752H243.678L234.143 45.3543V55.3752H225.464V15.5811H234.143Z" fill="#33414B"/>
</g>
<defs>
<clipPath id="clip0_712_6414">
<rect width="282" height="72" fill="white"/>
</clipPath>
</defs>
</svg>
