<svg width="122" height="72" viewBox="0 0 122 72" fill="none" xmlns="http://www.w3.org/2000/svg">
<path fill-rule="evenodd" clip-rule="evenodd" d="M3.07001 66.1405H2.56L2.29999 66.4005H2.03998V66.6605H1.77997V66.9205L1.52002 67.1705V68.4504H1.77997V68.9604H2.03998V69.2104H2.29999L2.56 69.4705H3.07001V69.7305H4.09998L4.35999 69.4705H5.13V69.2104H5.64001V68.9604H5.89996L6.40997 68.4504V68.1904H6.66998V66.4005L6.40997 66.1405H5.89996L5.64001 65.8805H3.33002L3.08002 66.1405H3.07001ZM5.38 61.0305H6.14996L6.40997 61.2905H6.66998L7.44 62.0604L7.69 62.3204V62.5804H7.95001V62.8304L8.20996 63.0905V63.8605L8.46997 64.1205V69.2305H8.97998V70.7605H7.70001L7.45001 70.5005H7.19V69.9905H6.92999V69.2205H6.66998V69.4805L6.15997 69.9905H5.89996V70.2505H5.64001L5.38 70.5105H5.13L4.87 70.7705H3.33002L3.08002 71.0305V70.7705H1.79999V70.5105H1.28998V70.2505H1.03998V69.9905H0.779968V69.7305H0.52002V69.4705H0.26001V68.9604H0V66.9205L0.26001 66.6605V66.4005L0.77002 65.8905H1.02997V65.6305H1.27997V65.3705H1.78998L2.04999 65.1105H2.56L2.82001 64.8605H5.38L5.64001 65.1105H6.40997L6.66998 65.3705V63.5804L6.40997 63.3204V63.0604L6.14996 62.8005L5.89001 62.5505L5.63 62.2905H5.12V62.0305H3.32001L2.81 62.2905H2.54999L2.03998 62.5505L1.77997 62.8005H1.52002L1.01001 63.0604L0.880005 62.8005H0.75V62.5405L0.619995 62.2905H0.48999V62.0305L1 61.7705L1.25 61.5105L1.76001 61.2505H2.27002V60.9905H3.29999L3.56 60.7305H5.09998L5.34998 60.9905L5.38 61.0305Z" fill="#33414B"/>
<path fill-rule="evenodd" clip-rule="evenodd" d="M27.2201 61.0298H27.4401L27.6701 60.9198C27.5201 60.9498 27.3701 60.9898 27.2301 61.0298H27.2201ZM26.9101 62.8297C26.9101 62.8297 26.9301 62.8297 26.9401 62.8197H26.9101V62.8297ZM24.1101 67.1997V67.1598H24.1001C24.1001 67.1598 24.1001 67.1797 24.1101 67.1997ZM27.9601 69.4597H28.6001C28.2801 69.4597 27.9701 69.4097 27.6601 69.3097L27.9601 69.4597ZM29.6201 60.8297C29.8801 60.8697 30.1401 60.9398 30.4001 61.0298H30.5301L30.6001 61.0997C30.6001 61.0997 30.6601 61.1797 30.7001 61.1997L30.7801 61.2798L31.1201 61.4497C31.1201 61.4497 31.2201 61.4898 31.2701 61.5198H31.2901V61.5398C31.6001 61.7498 31.8701 62.0098 32.1101 62.2998H32.3101V62.5597H32.5701V62.8097L32.8301 63.0697L32.5701 63.3297H32.3101L31.2801 63.5897L31.0201 63.3297L30.7701 63.0697L30.5101 62.8097L30.2501 62.5597H30.1801C30.1801 62.5597 30.1301 62.5597 30.1201 62.5597H29.9901L29.7301 62.2998H27.9301L27.6301 62.4497C27.6301 62.4497 27.5401 62.4998 27.4901 62.5198L27.4201 62.5597L27.1601 62.8097H26.9401C26.8701 62.8597 26.8001 62.9197 26.7401 62.9797L26.6501 63.0697L25.8801 63.8397L25.6201 64.3497V65.1097L25.3601 65.8798L25.6201 66.6498V67.1598L25.8801 67.6698L26.1401 67.9297L26.4001 68.4397L26.6601 68.6997L27.0301 68.8798C27.1001 68.9198 27.1601 68.9698 27.2301 69.0098L27.4301 69.2097L27.6401 69.3097C27.9501 69.4097 28.2701 69.4597 28.5801 69.4597H29.4801L29.9901 69.1997L30.2501 68.9497H30.5101L30.7701 68.6897L31.0201 68.4297L31.2801 68.1698V67.9098L32.0501 68.1698L32.5601 68.4297H32.8201V68.6897L32.5601 68.9497V69.1997L32.3001 69.4597L32.2601 69.4797C32.2601 69.4797 32.2501 69.4797 32.2401 69.4797L31.7801 69.7097L31.2701 70.2197L30.7601 70.4797L30.2501 70.7397H29.4801L28.7101 70.9998L27.9401 70.7397H27.4301L26.6601 70.4797L26.1501 70.2197L25.8501 69.9198C25.7901 69.8798 25.7501 69.7998 25.6901 69.7598L25.3801 69.4497H25.1201V69.1897L24.8601 68.9397L24.6301 68.7097C24.6301 68.7097 24.6101 68.6798 24.6001 68.6698V68.4297L24.0901 67.9198V67.3297C24.0601 67.2497 24.0401 67.1697 24.0201 67.0797L23.8401 66.8998V64.8597L23.9701 64.5997C23.9701 64.5997 24.0001 64.5598 24.0101 64.5298L24.1001 64.3497V63.8397L24.3601 63.3297L24.4101 63.2798C24.4401 63.2298 24.5101 63.1998 24.5401 63.1498L24.8701 62.8197V62.5697L25.1301 62.3097L25.6401 62.0498L25.9001 61.7898L26.4101 61.5298L26.6701 61.2698L27.1401 61.0298C27.3601 60.9598 27.5701 60.8597 27.8001 60.8297L27.9501 60.7598H29.4901L29.6101 60.8197L29.6201 60.8297Z" fill="#33414B"/>
<path fill-rule="evenodd" clip-rule="evenodd" d="M73.3701 62.3097H72.86L72.6 62.5697H72.34V62.8197H72.0801V63.0797H71.8201V63.3397L71.5701 63.5997V63.8597H71.3101V64.6298H71.05V65.1398H77.72V64.6298H77.46V64.1198L77.2001 63.8597V63.5997H76.9401V63.3397L76.6801 63.0797V62.8197H76.42L76.16 62.5697H75.9V62.3097H75.1301V62.0498H73.59L73.3301 62.3097H73.3701ZM75.4301 61.0298H76.2001L76.46 61.2898H76.72V61.5498H76.98L77.2401 61.8097H77.5001V62.0697H77.7601L78.0201 62.3297V62.5897H78.2701V62.8397H78.53V63.3497H78.79V63.8597H79.05V64.8798H79.3101V66.4098H71.1V66.6698L71.36 66.9297V67.6897H71.6201V68.1997H71.8701V68.4597H72.1301V68.7197L72.3901 68.9797H72.65V69.2297H72.91L73.17 69.4897H73.9401V69.7498H74.97L75.23 69.4897H75.7401L75.9901 69.2297H76.2501V68.9797H76.7601V68.7197L77.0201 68.4597V68.1997H77.28V67.9397L77.92 68.1997H78.3L78.5601 68.4597V68.7197L78.3 68.9797V69.2297H78.05V69.4897H77.79V69.7498H77.53V70.0098H77.2701L77.0101 70.2698H76.7501V70.5298H75.98V70.7898H74.4401V71.0498L74.1801 70.7898H72.9L72.6401 70.5298H72.1301L71.8701 70.2698H71.6201V70.0098H71.36L71.1 69.7498V69.4897H70.84L70.5801 69.2297V68.9797H70.3201V68.7197L70.0601 68.4597V68.1997H69.8V67.6897L69.54 67.4297V66.4098L69.29 66.1498V65.6398L69.54 65.3798V64.3597L69.8 64.0997V63.5897H70.0601V63.0797H70.3201V62.8197L70.5801 62.5697L71.35 61.7998H71.61V61.5398H71.86L72.1201 61.2798H72.3801L72.6401 61.0198H73.41L73.67 60.7598H75.21L75.47 61.0198L75.4301 61.0298Z" fill="#33414B"/>
<path fill-rule="evenodd" clip-rule="evenodd" d="M92.6199 68.6904V68.7505C92.6199 68.7505 92.6799 68.6505 92.7099 68.6005L92.6199 68.6904ZM84.9199 69.0704V68.9504L84.6499 68.6804C84.7399 68.8104 84.8199 68.9504 84.9199 69.0704ZM85.7399 69.7605L85.6899 69.7104L85.5399 69.6405C85.5999 69.6905 85.6699 69.7205 85.7399 69.7605ZM89.8499 60.9304C89.9599 60.9604 90.0699 60.9905 90.1799 61.0305H90.3099L90.3799 61.1005C90.3799 61.1005 90.4399 61.1804 90.4799 61.2004L90.5699 61.2905L91.08 61.5505L91.4199 61.7205C91.6799 61.9105 91.9599 62.0704 92.1699 62.3204H92.3699V62.5804L92.6299 62.8304L92.89 63.0905L92.6299 63.3505H92.3699L91.0899 63.6105L90.8399 63.3505V63.0905L90.58 62.8304L90.5099 62.7905C90.5099 62.7905 90.3899 62.7504 90.3499 62.7104L90.0699 62.5704H89.8099V62.3104H87.7599L87.5399 62.5205C87.5399 62.5205 87.54 62.5305 87.52 62.5405L87.4999 62.5604L87.0699 62.7705C86.9799 62.8305 86.9099 62.9105 86.8199 62.9705L86.7299 63.0604L86.4799 63.3204H86.2199L85.7099 64.3405V64.8505L85.5599 65.0005C85.5599 65.0005 85.53 65.0205 85.52 65.0405L85.45 65.1105V66.6405L85.7099 66.9005V67.1505L85.9699 67.6605V67.9205L86.4799 68.4304L86.7299 68.6904L86.9599 68.9105C86.9599 68.9105 87.0199 68.9505 87.0499 68.9705L87.5099 69.2004L87.77 69.4604H89.5699L89.83 69.2004L90.3399 68.9504L90.8499 68.4404H91.0999V68.2004C91.0999 68.2004 91.1199 68.1705 91.1299 68.1505L91.3599 67.9304L91.8699 68.1904L92.64 68.4504H92.8999L92.7799 68.5704C92.7399 68.6604 92.69 68.7404 92.64 68.8204V68.9705L92.3799 69.2205V69.4805H92.1199L91.3499 70.2505L90.8399 70.5105L90.0699 70.7705H89.2999L88.7899 71.0305L88.02 70.7705H87.2499L86.7399 70.5105L86.2299 70.2505L85.9299 69.9504C85.7699 69.8504 85.6199 69.7405 85.4799 69.6205L85.2 69.4805L84.9399 69.2205V69.1005C84.7799 68.9205 84.6299 68.7305 84.4999 68.5205L84.4299 68.4504L84.2999 68.1804C84.2999 68.1804 84.2599 68.1004 84.2399 68.0704L84.1799 67.9404V67.6804L83.9199 67.1705V66.6605L83.6599 65.8905L83.9199 65.1205V64.3605L84.4299 63.3405L84.6799 63.0804V62.8204L84.9399 62.5704L85.45 62.0604L85.9599 61.8005L86.2199 61.5405L86.7299 61.2805L86.9699 61.0405C86.9699 61.0405 87 61.0405 87.02 61.0305H87.2399L88.0099 60.7705H89.5499L89.8599 60.9304H89.8499Z" fill="#33414B"/>
<path fill-rule="evenodd" clip-rule="evenodd" d="M108.13 62.0504H108.26V61.8804C108.21 61.9304 108.17 62.0004 108.13 62.0504ZM111.95 60.8203C111.95 60.8203 112.04 60.8804 112.08 60.8904L112.37 61.0404H112.88L113.39 61.3004H113.56C113.63 61.3304 113.71 61.3304 113.78 61.3704L114.67 61.8103L114.93 62.0703V62.3303L114.67 62.5903L114.41 63.1003H114.16L113.65 62.5903L112.11 62.0803H110.31V62.3403H109.8L109.54 62.6003V62.8503H109.32C109.32 62.8503 109.29 62.9103 109.28 62.9503V63.1104L109.16 63.2203C109.15 63.2703 109.03 63.3003 109.03 63.3503V63.8704H109.29V64.3804H109.55V64.6404H110.06L110.31 64.9004L111.08 65.1504H111.34L112.11 65.4104H112.62L113.13 65.6704H113.64V65.9303H113.9L114.26 66.1104C114.26 66.1104 114.31 66.1304 114.32 66.1404L114.41 66.1903L114.92 66.7003V66.9603H115.18V69.0004H114.93C114.93 69.0004 114.93 69.0004 114.93 69.0104V69.2504L114.67 69.5104V69.7704L114.16 70.0304L113.65 70.5404H113.39L112.88 70.8004H112.11L111.34 71.0603L111.08 70.8004H109.8L109.03 70.5404L108 70.0304L107.49 69.7704L107.23 69.5104L107.49 69.0004L107.75 68.4904H108L108.29 68.6803C108.35 68.7203 108.41 68.7703 108.48 68.8103L109.54 69.5104H110.57L111.08 69.7704H111.85L112.36 69.5104H112.62L112.88 69.2504H113.14V69.0004H113.25C113.25 69.0004 113.32 69.0104 113.34 69.0004H113.4L113.66 68.7404V67.7203L113.4 67.4603V67.2003H113.14L112.88 66.9503H112.62L112.11 66.6903H111.85L110.82 66.4303L110.05 66.1704L109.54 65.9104H109.03L108.77 65.6504H108.51L107.74 64.8904V64.3804L107.57 64.2103C107.57 64.2103 107.53 64.1804 107.53 64.1704L107.49 64.1304V63.6204L107.51 63.5903L107.74 63.3704V62.8604L107.99 62.6104V62.2604C107.99 62.2604 107.99 62.2203 107.99 62.2103V62.1003H108.08C108.13 62.0303 108.19 61.9704 108.25 61.9104V61.8503L109.28 61.3403H109.54L109.8 61.0803H110.31L110.49 60.9004C110.49 60.9004 110.51 60.8704 110.52 60.8704L110.57 60.8203H111.85L111.94 60.8604L111.95 60.8203Z" fill="#33414B"/>
<path d="M15.8998 62.6797C15.8998 62.6797 15.9198 62.7598 15.8998 62.7898V63.0697L16.1498 62.8097V62.5597H16.4099V62.2998L17.1799 61.5298L17.6899 61.2698L18.1999 61.0098H19.4799V62.2898L18.7098 62.5498H18.2599C18.2599 62.5498 18.1999 62.5697 18.1699 62.5797L17.9499 62.7998L17.4399 63.0597L17.1799 63.3197H16.9199L16.5399 63.6997C16.3099 63.9597 16.0699 64.1998 15.9299 64.5198L15.8899 64.5997V70.7297H14.3499V61.0198H15.8899V62.6698L15.8998 62.6797Z" fill="#33414B"/>
<path fill-rule="evenodd" clip-rule="evenodd" d="M42.4 61.0308H42.58L42.66 60.9507C42.57 60.9707 42.49 61.0108 42.4 61.0308ZM46.17 62.8207L46.28 62.9307C46.26 62.8407 46.2 62.7707 46.17 62.6907V62.8207ZM44.63 63.3507V63.3307L44.6 63.3107C44.6 63.3107 44.62 63.3407 44.63 63.3607V63.3507ZM39.76 62.4907C39.76 62.4907 39.78 62.5907 39.76 62.6207V63.0807L40.02 62.8207L40.28 62.5707V62.3107L41.05 61.5408H41.31L41.56 61.2908C41.56 61.2908 41.62 61.2107 41.66 61.1907L41.82 61.0308H42.04C42.28 60.9408 42.53 60.8807 42.78 60.8407L42.84 60.7808H44.12L44.38 61.0408H44.89L45.4 61.3008V61.5607H45.66L45.92 61.8207V62.0807L46.17 62.3407V62.6407C46.21 62.7507 46.25 62.8507 46.28 62.9607L46.43 63.1107V64.1307L46.69 64.6407V70.7708H44.89V63.8707L44.63 63.6107V63.4307C44.61 63.3807 44.58 63.3308 44.56 63.2808L44.12 62.8407L43.86 62.5907L43.83 62.5607C43.66 62.4307 43.48 62.4007 43.28 62.3407H42.06L41.55 62.8507L40.52 63.3607L39.75 64.8907V70.7607H38.21V57.2207H39.75V62.5107L39.76 62.4907Z" fill="#33414B"/>
<path d="M54.1301 61.0303H52.5901V70.7402H54.1301V61.0303Z" fill="#33414B"/>
<path fill-rule="evenodd" clip-rule="evenodd" d="M62.34 68.9502H62.37C62.37 68.9502 62.35 68.9303 62.34 68.9203V68.9502ZM62.34 61.0303H64.39V62.3102H62.34V68.9103C62.34 68.9103 62.37 68.9402 62.38 68.9502H62.6V69.2002H64.14L64.65 68.9502H64.91V69.7102L65.17 69.9702V70.2302H64.91L64.65 70.4902H64.14L63.88 70.7502H62.08L61.82 70.4902H61.31V70.2302H61.05L60.8 69.9702V69.7102L60.54 69.4502V62.3003H59.26V61.0203H60.54V57.7002H62.34V61.0203V61.0303Z" fill="#33414B"/>
<path fill-rule="evenodd" clip-rule="evenodd" d="M100.31 68.9502H100.34C100.34 68.9502 100.32 68.9303 100.31 68.9203V68.9502ZM100.31 61.0303H102.36V62.3102H100.31V68.9103C100.31 68.9103 100.34 68.9402 100.35 68.9502H100.57V69.2002H102.11L102.62 68.9502L102.88 69.2002V69.7102L103.14 69.9702V70.2302H102.88L102.62 70.4902H102.11L101.85 70.7502H100.05L99.54 70.4902H99.29V70.2302H99.03L98.77 69.9702V69.7102L98.51 69.4502V62.3003H97.23V61.0203H98.51V57.7002H100.31V61.0203V61.0303Z" fill="#33414B"/>
<path d="M54.1301 57.2002H52.5901V59.2402H54.1301V57.2002Z" fill="#33414B"/>
<path fill-rule="evenodd" clip-rule="evenodd" d="M36.1901 44.9603L36.16 44.9403H36.15C36.15 44.9403 36.1801 44.9503 36.1901 44.9603ZM40.2701 33.7003V33.9603L40.0101 35.2404V37.2804L40.3901 38.4303C40.5001 38.6503 40.51 38.9003 40.66 39.1003L40.78 39.3303L41.04 39.5803L41.3 39.8403L41.8101 40.1003L42.3201 40.3604L43.35 40.6204H45.92L47.2001 40.1104H47.71L47.97 39.8503L48.7401 39.3403L50.0201 38.0603V37.8004L50.53 36.7804L50.79 36.0104L51.5601 33.9703L55.41 15.0703H62.85L59.0001 33.9703L58.4901 36.0104V36.7804L57.98 37.8004V38.0603L57.72 38.8303L57.46 39.3403L57.2001 39.8503V40.1104L56.9401 40.6204L56.4301 41.1304L55.66 42.4104L54.6301 43.1803V43.4403L52.5801 44.9703H52.3301L50.79 45.7404L50.28 45.9904H49.6401C48.6901 46.2704 47.7301 46.4703 46.7501 46.6003L46.4301 46.7604H44.7401C44.7401 46.7604 44.65 46.7604 44.6 46.7604H43.6C43.35 46.7604 43.11 46.7604 42.86 46.7604H41.29L41.1801 46.6504C41.0301 46.6304 40.9001 46.4703 40.7501 46.4503L38.48 46.0004H38.2001C38.2001 46.0004 38.1201 46.0104 38.0801 46.0004H37.97L37.2001 45.7504L36.92 45.5404C36.39 45.2904 35.9 44.9504 35.42 44.6104L34.8901 44.2103L34.7001 43.9303C34.2301 43.4803 33.81 42.9803 33.46 42.4303H33.35L33.29 42.1504C33.25 42.0804 33.2801 41.9704 33.2401 41.9004L33.09 41.1604H32.8301V40.3904L32.5701 40.1304V39.3704L32.3101 38.8604V35.7904L32.5701 35.2804L32.8301 34.0004V33.7404L36.6801 15.1003H44.1201L40.2701 33.7404V33.7003Z" fill="#33414B"/>
<path fill-rule="evenodd" clip-rule="evenodd" d="M15.6401 20.9299H15.1301L14.8701 21.1899H14.61L14.1 21.7H13.85L13.34 21.96L13.0801 22.22L12.8201 22.47L12.05 23.24L11.79 23.75L11.54 24.01V24.27L11.28 24.52L11.0201 25.03L10.7601 25.29L10.2501 26.3099V26.8199L9.99005 27.08V27.59L9.73004 28.1V28.61L8.70007 33.97L8.44006 34.23V35.76H8.18005V36.78L8.44006 37.04V38.0599L8.70007 38.3199V38.83L9.21002 39.34L9.47003 39.59L9.72003 39.85L10.23 40.36H10.7401L11.0001 40.62H13.05L13.5601 40.36H13.8201L14.0701 40.1H14.5801L14.84 39.84H15.1L15.36 39.58H15.6201L15.8801 39.33L16.1301 39.0699L17.9301 37.28L18.1801 36.77L18.6901 36.26L18.9501 35.75L19.46 35.24V34.73L19.72 34.47L19.98 33.96V33.7L20.2401 33.1899L20.4901 32.6799V32.42L20.7501 31.91V31.4L21.0101 31.14V30.88L21.2701 30.37V29.6L21.53 29.09V27.05L21.79 26.79V25.26L21.53 25V23.98L21.2701 23.72V22.95L21.0101 22.6899V22.4299H20.7501V22.1799L20.4901 21.92V21.66H20.2401V21.4H19.98L19.72 21.14H19.46V20.88H19.2001L18.9401 20.62H16.1201L15.61 20.88L15.6401 20.9299ZM12.8201 13.27V13.78L12.5601 14.54L12.3 15.05V15.5599L12.04 16.0699V16.84L11.78 17.35L11.53 17.86H12.04V17.6L12.3 17.34H12.5601V17.08L12.8201 16.8199H13.0801V16.5599H13.34L13.85 16.05H14.1L14.36 15.8L14.6201 15.54H14.8801L15.1401 15.28H15.4L15.66 15.02H16.17L16.6801 14.76H17.1901L17.4501 14.5H18.9901L19.2501 14.24H20.0201L20.53 14.5H21.8101L22.0701 14.76H22.5801L22.84 15.02H23.61L23.8701 15.28H24.1301V15.54H24.3901L24.6401 15.8H24.9L25.16 16.05H25.42V16.3099L25.9301 16.5699L26.4401 17.08L26.5701 17.34H26.7001V17.6H26.9501V17.73L27.21 17.86L27.47 18.37L27.73 18.88L27.9901 19.14L28.5001 20.16V20.67L28.7601 20.9299V21.1899L29.0101 21.7V22.46L29.2701 22.97V28.59L29.0101 29.1V29.87L28.7601 30.38V31.14L28.5001 31.4V32.42L28.2401 32.6799V33.1899L27.98 33.45V33.96L27.72 34.47V34.73L27.46 35.24L26.9501 36.26V36.52L26.7001 36.78L26.4401 37.54L26.1801 38.05L25.67 38.5599L25.41 39.0699L25.15 39.58L24.6401 40.09V40.35H24.5101L24.3801 40.61L23.8701 41.12V41.38L23.36 41.63L23.1 42.14L22.59 42.4L22.0801 42.91L21.5701 43.42L21.3101 43.67H21.05L20.54 44.1799L20.03 44.4399L19.5201 44.7L19.2601 44.96H18.7501V45.22L18.2401 45.48L17.73 45.74H16.96L16.4501 45.99L15.9401 46.25H15.6801L14.91 46.51H14.1401L13.3701 46.77H9.52008L9.01007 46.51H8.24005L7.98004 46.25H7.47003L6.96002 45.99L6.45007 45.74H5.94006L5.43005 45.48L5.18005 45.22L4.67004 44.96L4.41003 44.45H4.15002L2.61005 42.92L2.35004 42.41L2.09003 42.15L1.83008 41.64L1.57007 41.39V40.88L1.31006 40.62V40.36L1.06006 39.85V39.09L0.800049 38.83V35L1.06006 34.74V33.46L1.31006 33.2V32.95L2.08008 28.61L2.32007 28.12V28.0599L2.33008 27.58L2.50006 27.23L2.59003 26.83V26.3L2.78003 25.92L2.84003 25.62V25.03L3.05005 24.6L3.09003 24.39V23.75L3.32007 23.28L3.34003 23.1799V22.47L3.53003 22.28L3.60004 21.96V21.1899L3.80005 20.99L3.85004 20.74V20.17L4.05005 19.76L4.10004 19.51V18.89L4.32007 18.4399L4.35004 18.29V17.87L4.50006 17.5599L4.60004 17.0699V16.85L4.73004 16.47L4.86005 15.85V15.0599L5.12006 14.55V13.79L5.37006 13.28L8.19006 0H15.6301L12.8101 13.28L12.8201 13.27Z" fill="#33414B"/>
<path fill-rule="evenodd" clip-rule="evenodd" d="M101.85 20.6802H101.08L100.57 20.9402H100.31L100.05 21.2002H99.7899L99.5299 21.4602H99.2799L98.77 21.9702H98.5099V22.2302H98.2499L97.2199 23.2502L96.9599 23.7603L96.1899 24.5203V25.0303L95.9299 25.2903V25.5503H95.6699V26.0602L95.4099 26.3202L95.1499 26.8302V27.0902L94.8999 27.6002V27.8602L94.64 28.3702V28.6302L94.3799 29.1403V29.4003L94.1199 29.9103V30.6802L93.8599 31.1902V32.4702L93.5999 32.7302V35.2803L103.35 25.7603V25.5702L103.61 25.3102L104.22 24.9003L104.47 24.6503L104.89 24.0303L105.58 23.5702L106.94 22.2402H106.68V21.9802H106.42V21.7202L106.16 21.4602H105.9L105.65 21.2002H105.39V20.9402H105.13L104.87 20.6802H103.84L103.59 20.4203H102.05L101.79 20.6802H101.85ZM97.7499 35.7402L97.1199 36.1603L96.89 36.3802L96.4599 37.0203L95.7499 37.4902L94.6599 38.5503V38.8102H94.9199V39.0702H95.1699V39.3302L95.4299 39.5802H95.6899V39.8402H95.95L96.2099 40.1002H96.4699L96.7299 40.3602H98.0099L98.27 40.6202H99.5499L99.8099 40.3602H100.58L100.84 40.1002H101.35L101.6 39.8402H101.86L102.12 39.5802L102.63 39.3302L102.89 39.0702H103.15V38.8102H103.41L103.92 38.3003V38.0403H104.18L104.44 37.7803L104.7 37.2703L105.21 36.7603V36.5002L105.47 35.9902L105.73 35.7302V35.4702H105.98V34.9602L106.24 34.7002L106.5 34.1902V33.6802L106.76 33.4203V33.1603L107.02 32.6503V32.3903L107.28 31.8802V31.1102L107.54 30.6002V29.8302L107.8 29.3202V27.7903L108.05 27.2803V25.4902L97.7899 35.7102L97.7499 35.7402ZM105.45 14.5503H106.48L107.25 14.8102H107.76L108.53 15.0702L109.56 15.5802H110.07L110.32 16.0902H110.58L110.84 16.3502L111.87 16.8602L112.13 17.1202L112.38 16.6102L113.67 15.5802L114.95 14.3102L117 16.6102L116.74 17.1202L116.49 17.3802H116.3L116.07 17.6302L115.73 18.1403L115.22 18.6503L115 18.7903L114.19 19.6703V19.9302L114.44 20.1902V20.7002H114.7V20.9602L114.96 21.4702V22.2402H115.22V22.7502L115.48 23.5203V29.1403L115.22 29.9103V30.9302L114.71 32.9802V33.2302L114.58 33.3602L114.45 33.7402V34.0002L114.36 34.0902L114.19 34.7703L113.93 35.5303L113.42 36.5503V36.8102L113.29 36.9402L113.16 37.3202L112.9 37.7002V37.8302L112.64 38.0902V38.3502L112.13 38.8602V39.1202H111.96L111.87 39.2502V39.3802L111.61 39.6302V39.8903H111.44L111.35 40.0203V40.1503L111.09 40.4103V40.6703H110.92L110.83 40.8003V40.9302L110.57 41.1902L110.06 41.9502L108.52 42.9702L108.01 43.7302L107.24 44.2402L106.47 44.5002L105.7 45.0103L104.67 45.5203L103.9 45.7803L103.13 46.0303H102.87L102.61 46.2903H102.1L101.33 46.5503H100.05L99.5399 46.8102H96.9799L96.2099 46.5503H94.9299L94.4199 46.2903H93.9099L93.14 46.0303L92.1099 45.5203H91.8499L91.5899 45.2603L90.5599 44.7502L90.2999 44.4902L89.7899 44.2302L89.2799 43.7202L86.7099 46.5303H86.4599L84.4099 44.2302L84.9199 43.7202H84.9699L85.5099 43.2302L85.7 42.9602L86.2099 42.4502L86.8099 42.0503L87.4899 41.4302V41.1703H87.2299V40.6603H86.9699V40.1503L86.8399 39.8903H86.7099V39.6302L86.5399 39.1202H86.45V38.3502L86.1899 37.5802V35.7903L85.9299 35.2803V35.0303L86.1899 34.0103V31.4602L86.45 31.2002V29.9203L86.58 29.6603L86.7099 29.1603V28.6403L86.8799 28.4702L86.9699 28.1302V27.8702L87.0599 27.7803L87.2299 27.1002V26.8402L87.4899 26.3302V26.0702L88.2199 24.6202L88.2599 24.5303V24.2803L88.39 24.1503L88.52 23.7703L88.77 23.2603L89.0299 23.0002V22.7402L89.2899 22.4802V22.2302H89.5499V21.9702L89.8099 21.7102V21.4502H90.0699V21.1902L90.33 20.9302V20.6703H90.5899V20.4103L91.0999 19.9003V19.6403H91.27L91.6099 19.1302L92.3799 18.6202L93.6599 17.3402L94.4299 16.8302L94.9399 16.5702H95.1899L95.45 16.3102L95.9599 16.0503L96.7299 15.5403L97.7599 15.2803L98.27 15.0203H98.7799L99.0399 14.7603H99.5499L100.32 14.5002H100.58L101.61 14.2402H105.2L105.46 14.5002L105.45 14.5503Z" fill="#33414B"/>
<path fill-rule="evenodd" clip-rule="evenodd" d="M83.8301 21.2C83.8301 21.2 83.93 21.2 83.98 21.2L83.8901 21.1799H83.8301V21.2ZM85.41 14.29C85.41 14.29 85.45 14.29 85.47 14.29L86.97 14.54H88.0001L87.7401 15.05V15.5599L87.48 17.09L86.4501 21.1799V21.6899L86.1901 21.4299H85.16L84.15 21.23C84.02 21.23 83.9001 21.1999 83.7701 21.1899L82.59 21.4299H81.5601L80.28 21.9399L79.2501 22.45L77.97 22.96L76.9401 23.98L76.3701 24.74C76.2401 24.9 76.1401 25.08 76.0201 25.26L75.4 26.29L74.6301 27.8199L73.86 30.37L70.78 45.95H63.0801L68.21 21.22V21.17L68.2601 20.95L69.4901 15.05H75.9V19.14H76.16L77.96 17.1L80.2701 15.5699L81.8101 15.0599L82.1801 14.9399C82.6801 14.7999 83.14 14.61 83.66 14.55L85.3801 14.3L85.41 14.29Z" fill="#33414B"/>
</svg>
