<svg width="390" height="72" viewBox="0 0 390 72" fill="none" xmlns="http://www.w3.org/2000/svg">
<path d="M43.1522 45.3563L44.6976 43.9597C45.5502 43.1934 46.3466 42.5957 46.468 42.6282C46.5923 42.6637 48.8779 45.4214 51.5482 48.7589C54.2157 52.0965 56.3472 54.9251 56.2821 55.0464C56.217 55.1677 55.0328 55.2683 51.1308 55.2683L43.1522 45.3563Z" fill="#33414B"/>
<path d="M245.785 33.5208L245.696 31.5236L245.61 29.5264H268.729V33.6687H259.255V55.2682H254.814V33.6687L245.785 33.5208Z" fill="#33414B"/>
<path d="M211.591 55.2682V42.3973V29.5264H216.031V39.5864H231.722V29.5264H236.163V55.2682H231.722V44.0246H216.031L215.883 55.1202L211.591 55.2682Z" fill="#33414B"/>
<path d="M161.706 55.1202L161.629 42.3233L161.552 29.5264H165.999V55.2682L161.706 55.1202Z" fill="#33414B"/>
<path d="M133.581 55.1202L133.504 42.3233L133.427 29.5264H137.871L138.022 50.682L151.492 50.8299V55.2682L133.581 55.1202Z" fill="#33414B"/>
<path fill-rule="evenodd" clip-rule="evenodd" d="M66.2738 29.4814L73.8764 29.5968C80.3925 29.6915 81.6862 29.7892 82.9563 30.2626C83.8652 30.6028 85.0198 31.3958 85.9494 32.316C87.2402 33.5972 87.5125 34.0735 87.8323 35.5914C88.0513 36.6477 88.1194 37.9644 87.9951 38.8461C87.8826 39.6598 87.4681 40.9587 87.0744 41.731C86.6362 42.592 85.8754 43.4678 85.1027 43.9886C84.4099 44.459 83.1102 45.0656 82.2162 45.3408C81.1326 45.6751 78.927 45.9089 70.6672 46.2432L70.6701 55.2676H66.2294L66.2738 29.4814ZM70.6701 41.657C77.4379 41.6541 79.904 41.5209 80.5139 41.3582C81.1237 41.1984 81.9734 40.7664 82.3997 40.3995C83.0037 39.8788 83.2109 39.3758 83.3412 38.1064C83.4566 36.9406 83.3767 36.269 83.0599 35.7394C82.8142 35.331 82.0918 34.7422 81.4523 34.4286C80.4961 33.9611 79.4451 33.8368 75.5195 33.7244L70.7501 33.5913L70.6701 41.657Z" fill="#33414B"/>
<path d="M34.6526 34.7045C32.7045 32.2635 31.0082 30.1006 30.8779 29.8964C30.6973 29.6094 31.2687 29.5236 36.1802 29.5088L38.7706 32.7724C40.1946 34.5684 41.3611 36.1691 41.3611 36.3318C41.3611 36.4946 40.7956 37.3674 40.1029 38.2699C39.117 39.5599 38.7736 39.8292 38.516 39.5274C38.3384 39.3173 36.5976 37.1455 34.6526 34.7045Z" fill="#33414B"/>
<path d="M30.0371 54.8717C29.9956 54.7385 34.1374 48.9126 39.2383 41.9268L48.5107 29.2305H53.0787C55.5893 29.2305 57.709 29.3311 57.786 29.4524C57.8659 29.5737 51.8087 35.3996 44.3275 42.3973C36.8462 49.3949 30.5877 55.1202 30.419 55.1202C30.2502 55.1202 30.0785 55.0078 30.0371 54.8717Z" fill="#33414B"/>
<path d="M181.852 30.9432C182.658 30.5024 184.315 29.8692 185.538 29.5348C187.359 29.0377 188.401 28.949 191.311 29.0407C193.993 29.1265 195.335 29.3159 196.788 29.813C197.848 30.1769 199.08 30.7272 199.527 31.0349C200.284 31.5587 200.341 31.7421 200.341 33.6683C200.341 35.4436 200.267 35.7395 199.823 35.7395C199.538 35.7424 198.372 35.2749 197.232 34.7039C195.888 34.0322 194.381 33.5529 192.939 33.3428C191.433 33.1209 190.1 33.1091 188.795 33.3044C187.735 33.4612 186.015 33.9731 184.973 34.4435C183.714 35.0087 182.684 35.7454 181.917 36.6271C181.204 37.4497 180.585 38.58 180.301 39.586C179.981 40.7014 179.89 41.8169 180.008 43.1366C180.112 44.2905 180.482 45.6811 180.935 46.6132C181.42 47.6103 182.139 48.4891 182.948 49.066C183.64 49.5631 184.94 50.2496 185.834 50.5928C187.146 51.0988 188.096 51.2171 190.719 51.2082C192.673 51.2023 194.509 51.0307 196.64 50.362L196.788 44.9118H188.795V40.7695H200.933V52.9007L199.083 53.7765C198.064 54.2588 196.433 54.8594 195.456 55.1109C194.435 55.3743 192.424 55.5666 190.719 55.5666C189.037 55.5666 186.992 55.3713 185.982 55.1139C185.005 54.8653 183.341 54.2381 182.282 53.7173C181.213 53.1906 179.7 52.1048 178.877 51.2733C178.063 50.4478 177.03 49.0128 176.583 48.0808C176.136 47.1517 175.609 45.4267 175.413 44.2461C175.132 42.5655 175.135 41.6542 175.419 40.0298C175.62 38.8906 176.139 37.2278 176.571 36.3312C177.003 35.4347 178.039 34.0382 178.874 33.2245C179.706 32.4108 181.047 31.3841 181.852 30.9432Z" fill="#33414B"/>
<path fill-rule="evenodd" clip-rule="evenodd" d="M109.897 28.9527C111.386 28.9408 113.346 29.1302 114.338 29.3847C115.315 29.6332 116.981 30.2634 118.038 30.7842C119.104 31.3109 120.614 32.3967 121.422 33.2193C122.225 34.0359 123.252 35.5035 123.705 36.4799C124.158 37.4563 124.664 39.1547 124.836 40.2524C125.046 41.6253 125.049 42.874 124.839 44.2469C124.673 45.3446 124.149 47.0429 123.678 48.0194C123.16 49.0905 122.136 50.4574 121.097 51.4664C120.108 52.4221 118.61 53.4873 117.594 53.9577C116.617 54.4075 115.152 54.9519 114.338 55.1679C113.524 55.3809 111.593 55.5584 110.045 55.5614C108.476 55.5644 106.481 55.372 105.53 55.1235C104.595 54.8779 103.061 54.2921 102.126 53.8216C101.19 53.3482 99.8253 52.431 99.0911 51.783C98.3569 51.132 97.3325 49.8864 96.8085 49.0135C96.2875 48.1407 95.6539 46.6287 95.4023 45.6523C95.1506 44.6759 94.9464 43.1462 94.9523 42.2496C94.9582 41.3531 95.1003 40.0216 95.272 39.2908C95.4437 38.56 95.9381 37.2433 96.3763 36.3645C96.8263 35.4562 97.9306 34.0537 98.943 33.1039C99.92 32.1837 101.454 31.0801 102.348 30.6481C103.242 30.2131 104.71 29.6598 105.604 29.4172C106.498 29.1746 108.432 28.9645 109.897 28.9527ZM105.012 34.1661C104.278 34.4768 103.082 35.2727 102.348 35.9325C101.563 36.6397 100.725 37.7907 100.311 38.7286C99.8312 39.8116 99.6003 40.8975 99.5944 42.1017C99.5855 43.0781 99.7542 44.4096 99.9674 45.0605C100.181 45.7115 100.702 46.7323 101.128 47.33C101.554 47.9276 102.368 48.765 102.94 49.1881C103.511 49.6142 104.71 50.2444 105.604 50.5906C106.859 51.0788 107.878 51.2238 110.045 51.2238C112.206 51.2238 113.233 51.0788 114.486 50.5935C115.38 50.2474 116.7 49.4603 117.414 48.8449C118.127 48.2265 119.054 47.1228 119.471 46.392C120.022 45.4245 120.265 44.4954 120.359 42.9894C120.448 41.575 120.336 40.4477 120.01 39.4388C119.75 38.6251 119.03 37.3735 118.417 36.6604C117.802 35.9473 116.765 35.0508 116.114 34.6691C115.463 34.2904 113.997 33.7785 112.857 33.5329C111.718 33.2874 110.32 33.1009 109.749 33.1157C109.178 33.1305 108.18 33.243 107.529 33.3702C106.877 33.4945 105.746 33.8525 105.012 34.1661Z" fill="#33414B"/>
<path d="M0.653947 55.1202L0.576973 42.3233L0.5 29.5264H21.8216V33.6687H4.94669V39.8823L20.7855 40.0302L20.9335 44.0246L5.09472 44.1726L4.94669 51.1258H22.7098V55.2682L0.653947 55.1202Z" fill="#33414B"/>
<path d="M278.893 28.8652C277.977 28.8652 277.118 28.6949 276.315 28.3543C275.521 28.0062 274.821 27.5293 274.215 26.9238C273.61 26.3184 273.137 25.6183 272.796 24.8236C272.455 24.0213 272.285 23.166 272.285 22.2578C272.285 21.3496 272.455 20.4981 272.796 19.7034C273.137 18.9011 273.61 18.1972 274.215 17.5917C274.821 16.9863 275.521 16.5132 276.315 16.1726C277.118 15.8245 277.977 15.6504 278.893 15.6504C279.801 15.6504 280.652 15.8245 281.447 16.1726C282.249 16.5132 282.953 16.9863 283.559 17.5917C284.164 18.1972 284.637 18.9011 284.978 19.7034C285.326 20.4981 285.5 21.3496 285.5 22.2578C285.5 23.166 285.326 24.0213 284.978 24.8236C284.637 25.6183 284.164 26.3184 283.559 26.9238C282.953 27.5293 282.249 28.0062 281.447 28.3543C280.652 28.6949 279.801 28.8652 278.893 28.8652ZM278.893 27.991C279.952 27.9835 280.913 27.7223 281.776 27.2077C282.647 26.693 283.335 26.0043 283.842 25.1414C284.357 24.271 284.614 23.3098 284.614 22.2578C284.614 21.2058 284.357 20.2483 283.842 19.3855C283.335 18.5151 282.647 17.8226 281.776 17.3079C280.913 16.7857 279.952 16.5246 278.893 16.5246C277.841 16.5246 276.879 16.7857 276.009 17.3079C275.146 17.8226 274.457 18.5151 273.943 19.3855C273.428 20.2483 273.171 21.2058 273.171 22.2578C273.171 23.3098 273.428 24.271 273.943 25.1414C274.457 26.0043 275.146 26.693 276.009 27.2077C276.879 27.7223 277.841 27.9835 278.893 27.991ZM276.724 25.2323V19.1471H279.79C280.327 19.1395 280.782 19.3022 281.152 19.6353C281.531 19.9683 281.72 20.4224 281.72 20.9976C281.72 21.4139 281.618 21.7734 281.413 22.0761C281.209 22.3789 280.944 22.6022 280.619 22.746L281.97 25.2323H281.073L279.847 22.9276C279.817 22.9276 279.786 22.9276 279.756 22.9276H277.519V25.2323H276.724ZM277.519 22.2464H279.608C279.987 22.2389 280.29 22.1291 280.517 21.9172C280.751 21.6977 280.869 21.3912 280.869 20.9976C280.869 20.6041 280.751 20.3089 280.517 20.1121C280.29 19.9153 279.991 19.8169 279.62 19.8169H277.519V22.2464Z" fill="#33414B"/>
</svg>
