<svg width="227" height="72" viewBox="0 0 227 72" fill="none" xmlns="http://www.w3.org/2000/svg">
<path d="M68.95 13L55.47 36.5L68.95 60H96.01L109.48 36.5L96.01 13H68.95Z" fill="#33414B"/>
<path d="M143.78 13H116.73V60H143.78L157.26 36.5L143.78 13Z" fill="#33414B"/>
<path d="M40.1899 13L25.7 21.4L11.3199 13L0 32.41L14.72 41.04V60H36.79V41.04L51.51 32.41L40.1899 13Z" fill="#33414B"/>
<path d="M187.37 36.1599H189.18C190.2 36.1599 190.77 35.5898 190.77 34.5698C190.77 33.6598 190.2 33.0898 189.18 33.0898H187.37V36.1599ZM191.67 41.8398L188.95 38.0898H187.36V41.8398H185.21V31.1699H189.17C191.43 31.1699 193.02 32.5298 193.02 34.5798C193.02 35.9398 192.34 37.0799 191.1 37.6499L194.16 41.8499H191.67V41.8398Z" fill="#33414B"/>
<path d="M216.81 37.4099C216.81 40.2499 214.89 42.0599 212.28 42.0599C209.67 42.0599 207.75 40.3599 207.75 37.4099V31.1699H209.9V37.6399C209.9 39.2299 210.92 40.0199 212.28 40.0199C213.64 40.0199 214.66 39.2299 214.66 37.6399V31.1699H216.81V37.4099Z" fill="#33414B"/>
<path d="M221.34 33.0898V36.1599H223.15C224.17 36.1599 224.74 35.4798 224.74 34.5698C224.74 33.6598 224.17 33.0898 223.15 33.0898H221.34ZM227 34.5698C227 36.6098 225.41 38.0898 223.15 38.0898H221.34V41.8398H219.19V31.1699H223.15C225.41 31.1699 227 32.5298 227 34.5798V34.5698Z" fill="#33414B"/>
<path d="M200.28 40.0195C198.36 40.0195 196.77 38.4295 196.77 36.4995C196.77 34.5695 198.36 32.9795 200.28 32.9795C202.2 32.9795 203.79 34.5695 203.79 36.4995C203.79 38.4295 202.2 40.0195 200.28 40.0195ZM200.28 30.9395C197.22 30.9395 194.73 33.4395 194.73 36.4995C194.73 39.5595 197.22 42.0596 200.28 42.0596C203.34 42.0596 205.83 39.5595 205.83 36.4995C205.83 33.4395 203.34 30.9395 200.28 30.9395Z" fill="#33414B"/>
<path d="M181.37 36.4996C181.37 38.4296 179.79 40.0197 177.86 40.0197C175.93 40.0197 174.35 38.4296 174.35 36.4996C174.35 34.5696 175.93 32.9796 177.86 32.9796C178.88 32.9796 179.67 33.3196 180.35 33.9996L181.82 32.5197C180.8 31.4997 179.44 30.9297 177.97 30.9297C174.91 30.9297 172.42 33.4296 172.42 36.4896C172.42 39.5496 174.91 42.0497 177.97 42.0497C181.03 42.0497 183.52 39.5496 183.52 36.4896V36.3796C183.52 35.8096 183.41 35.5896 183.41 35.5896H182.39L181.37 36.4996Z" fill="#33414B"/>
</svg>
