<svg width="50" height="51" viewBox="0 0 50 51" fill="none" xmlns="http://www.w3.org/2000/svg">
<path d="M25.3333 40.5001C25.3333 37.0023 22.4978 34.1667 19 34.1667C17.9146 34.1667 16.8929 34.4398 16 34.921M25.3333 40.5001V42.8334C25.3333 45.7789 22.9455 48.1667 20 48.1667C18.1703 48.1667 16.5558 47.2454 15.5951 45.8412C15.0093 44.985 14.6667 43.9492 14.6667 42.8334C14.6667 42.5947 14.6824 42.3596 14.7128 42.1291M25.3333 40.5001V35.1667M14 28.8334C11.6003 28.8334 9.49666 30.1013 8.32258 32.0038M21.3333 25.5001C21.3333 22.6354 19.3258 20.2397 16.6408 19.6429M13.6667 18.1667C13.0866 18.1667 12.5269 18.0796 12 17.9177C10.2675 17.3853 8.88889 16.0448 8.30402 14.336M32 8.16675C33.1046 8.16675 34 7.27132 34 6.16675C34 5.06218 33.1046 4.16675 32 4.16675C30.8954 4.16675 30 5.06218 30 6.16675C30 7.27132 30.8954 8.16675 32 8.16675ZM32 8.16675V15.5001H25.3333M44 25.5001C44 26.6047 44.8954 27.5001 46 27.5001C47.1046 27.5001 48 26.6047 48 25.5001C48 24.3955 47.1046 23.5001 46 23.5001C44.8954 23.5001 44 24.3955 44 25.5001ZM44 25.5001H25.3333M40 37.5001C38.8954 37.5001 38 38.3955 38 39.5001C38 40.6047 38.8954 41.5001 40 41.5001C41.1046 41.5001 42 40.6047 42 39.5001C42 38.3955 41.1046 37.5001 40 37.5001ZM40 37.5001V33.5001L36 30.1667H25.3333M31.3333 42.1667C30.2288 42.1667 29.3333 43.0622 29.3333 44.1667C29.3333 45.2713 30.2288 46.1667 31.3333 46.1667C32.4379 46.1667 33.3333 45.2713 33.3333 44.1667C33.3333 43.0622 32.4379 42.1667 31.3333 42.1667ZM31.3333 42.1667V35.1667H25.3333M25.3333 15.5001V7.50008C25.3333 4.55456 22.9455 2.16675 20 2.16675C17.2481 2.16675 14.983 4.25091 14.6971 6.92688M25.3333 15.5001V20.1667M41.3333 12.9908C41.6872 13.3075 42.1544 13.5001 42.6667 13.5001C43.7712 13.5001 44.6667 12.6047 44.6667 11.5001C44.6667 10.3955 43.7712 9.50008 42.6667 9.50008C41.5621 9.50008 40.6667 10.3955 40.6667 11.5001C40.6667 12.0924 40.9242 12.6246 41.3333 12.9908ZM41.3333 12.9908L36 20.1667H25.3333M25.3333 20.1667V25.5001M25.3333 25.5001V30.1667M25.3333 30.1667V35.1667M18.761 40.1667C17.7072 41.2416 16.2924 41.9612 14.7128 42.1291M14.7128 42.1291C14.4786 42.154 14.2408 42.1667 14 42.1667C13.6123 42.1667 13.2324 42.1337 12.8628 42.0701C9.72263 41.5305 7.33333 38.7943 7.33333 35.5001C7.33333 34.2179 7.69529 33.0203 8.32258 32.0038M20.6667 7.72853C21.5005 8.75901 22 10.0712 22 11.5001C22 12.7335 21.6278 13.88 20.9896 14.8334M14.6971 6.92688C14.677 7.11519 14.6667 7.30643 14.6667 7.50008C14.6667 9.3332 15.5915 10.9503 17 11.9103M14.6971 6.92688C14.363 6.86549 14.0186 6.83341 13.6667 6.83341C10.5371 6.83341 8 9.37047 8 12.5001C8 13.1426 8.10695 13.7602 8.30402 14.336M8.30402 14.336C4.63631 15.5939 2 19.0725 2 23.1667C2 27.2679 4.64521 30.7513 8.32258 32.0038M16.6408 19.6429C16.6579 19.4866 16.6667 19.3277 16.6667 19.1667C16.6667 17.9378 16.1551 16.8284 15.3333 16.0398M16.6408 19.6429C16.4037 21.8121 14.5656 23.5001 12.3333 23.5001H9.33333" stroke="#0A0F13"/>
</svg>
