<svg width="60" height="60" viewBox="0 0 60 60" fill="none" xmlns="http://www.w3.org/2000/svg">
<circle cx="12.8309" cy="35.4032" r="4.828" stroke="#33414B"/>
<circle cx="47.1678" cy="35.4032" r="4.828" stroke="#33414B"/>
<path d="M12.0878 22.4766C13.4771 21.6511 17.1498 20 20.7258 20C23.1011 20 24.4175 20 25.075 20M12.0878 22.4766C14.8028 25.2779 21.2426 26.1735 25.075 26.3202M12.0878 22.4766L8.76544 24.6512H4.1142C3.7115 24.6714 2.90609 24.9049 2.90609 25.6781C2.90609 26.4513 2.90609 28.3763 2.90609 29.2421L2 29.9065V33.108L7.99298 35.4849M42.2302 26.3426C42.4823 26.3426 42.7244 26.3426 42.9551 26.3426C55.4591 26.3426 58.1169 29.9065 57.9961 30.9938C57.8753 32.0811 57.8149 33.5309 57.5733 35.1014C57.418 36.1105 54.1711 36.4339 51.866 36.4908M42.2302 26.3426C37.6779 26.3426 29.854 26.3426 26.3435 26.3426C25.9666 26.3448 25.54 26.338 25.075 26.3202M42.2302 26.3426C36.383 21.3168 28.7195 20.0201 25.6186 20C25.5713 20 25.4073 20 25.075 20M25.075 20V26.3202M42.5315 36.5244C33.6314 36.7857 22.6011 36.6584 17.4442 36.5312" stroke="#33414B"/>
</svg>
