<svg width="50" height="50" viewBox="0 0 50 50" fill="none" xmlns="http://www.w3.org/2000/svg">
<path d="M36.146 16.5616C36.5771 16.639 37.021 16.6794 37.4741 16.6794C39.5477 16.6794 41.4253 15.8338 42.7865 14.4657M36.146 16.5616L30.0651 10.4291M36.146 16.5616L14.8965 36.3234L13.7318 35.1488M30.0651 10.4291C29.9883 9.99431 29.9483 9.54673 29.9483 9.08972C29.9483 6.9986 30.7868 5.105 32.1433 3.73227M30.0651 10.4291L10.4695 31.8589L11.1835 32.5789M11.1835 32.5789L7.37065 36.7699L8.4774 37.886M11.1835 32.5789L13.7318 35.1488M13.7318 35.1488L9.58415 39.0021L8.4774 37.886M8.4774 37.886C3.82907 41.6809 2.94367 44.3596 5.15716 45.699C7.37065 47.0383 11.7979 47.0383 16.2249 43.0202C20.6519 39.0021 24.6362 33.0335 32.6047 34.0912M29.5053 17.1259L25.521 21.144M32.1433 3.73227C33.506 2.35334 35.3912 1.5 37.4741 1.5C41.6306 1.5 45 4.89803 45 9.08972C45 11.1903 44.1538 13.0915 42.7865 14.4657M32.1433 3.73227L42.7865 14.4657" stroke="#0A0F13"/>
</svg>
