<svg width="50" height="50" viewBox="0 0 50 50" fill="none" xmlns="http://www.w3.org/2000/svg">
<path d="M14.4583 8.06944C14.4583 9.77495 14.4583 12.3835 14.4583 14.7628M22.7897 8.06944C22.7897 8.75004 22.7897 9.57444 22.7897 10.4707M17.6528 8.06944V18.2917M20.2111 8.06944V18.2917M22.7897 10.4707C22.7897 14.2018 22.7897 19.178 22.7897 20.2083C22.7897 21.8056 22.4703 23.7222 20.2111 23.7222C20.2111 27.8546 20.2111 35.4202 20.2111 38.8964M22.7897 10.4707C23.5106 10.3619 24.2487 10.3056 25 10.3056C27.3134 10.3056 29.502 10.8402 31.4489 11.7926M14.4583 14.7628C11.8881 17.409 10.3056 21.0197 10.3056 25C10.3056 30.1807 12.9866 34.7353 17.037 37.3519M14.4583 14.7628C14.4583 17.2856 14.4583 19.5507 14.4583 20.2083C14.4583 21.8056 14.7778 23.7222 17.037 23.7222V37.3519M34.9028 26.2778H31.7287M34.9028 26.2778V35.8565M34.9028 26.2778V14.1435M31.7287 26.2778H30.1111C30.1111 26.1713 30.1111 25.2556 30.1111 22.4444C30.1111 20.1478 30.1111 15.2611 31.4489 11.7926M31.7287 26.2778V38.0668M31.7287 38.0668V40.6527C31.7287 41.9305 32.3676 42.2499 33.3259 42.2499C34.2843 42.2499 34.9028 41.9306 34.9028 40.6528V35.8565M31.7287 38.0668C29.7127 39.1071 27.4249 39.6944 25 39.6944C23.3233 39.6944 21.7121 39.4136 20.2111 38.8964M34.9028 35.8565C37.8471 33.1693 39.6944 29.3004 39.6944 25C39.6944 20.6996 37.8471 16.8307 34.9028 14.1435M31.4489 11.7926C32.158 9.9542 33.2429 8.51421 34.9028 8.06944V14.1435M20.2111 38.8964C20.2111 39.8093 20.2111 40.4402 20.2111 40.6528C20.2111 41.9306 19.5925 42.2499 18.6342 42.2499C17.6759 42.2499 17.037 41.9305 17.037 40.6527V37.3519M48 25C48 37.7025 37.7025 48 25 48C12.2975 48 2 37.7025 2 25C2 12.2975 12.2975 2 25 2C37.7025 2 48 12.2975 48 25Z" stroke="#0A0F13"/>
</svg>
