<svg width="50" height="51" viewBox="0 0 50 51" fill="none" xmlns="http://www.w3.org/2000/svg">
<path d="M21.4151 40.3278C21.4151 45.0253 25.1066 48.8333 29.6604 48.8333H13.1698C17.7236 48.8333 21.4151 45.0253 21.4151 40.3278ZM21.4151 40.3278V39.958M34.3208 48.8333V48.0937C34.3208 43.6005 30.7897 39.958 26.434 39.958H21.4151M21.4151 39.958H12.8113C11.2274 39.958 9.9434 38.6335 9.9434 36.9996C9.9434 35.3658 11.2274 34.0412 12.8113 34.0412C15.0513 34.0412 17.0242 34.0412 19.2642 34.0412M21.4151 29.6036C29.9286 29.6036 36.8302 22.4843 36.8302 13.7022H6C6 22.4843 12.9016 29.6036 21.4151 29.6036ZM21.4151 29.6036V38.109M21.4151 34.0413C21.7736 34.0413 23.8528 34.0413 29.3019 34.0413C36.1132 34.0413 44 28.8641 44 17.4003C44 5.93651 35.9271 2.10245 32.5283 1.86871C27.1509 1.49891 23.9499 4.11434 22.324 5.39523M22.324 5.39523C22.3787 5.45116 22.4342 5.50838 22.4906 5.56663C23.351 6.45415 22.8491 7.41563 22.4906 7.78543C22.0126 8.15523 20.8416 9.04275 19.9812 9.63443C18.9057 10.374 17.8302 10.7438 16.7548 9.26463C15.6793 7.78534 17.1133 6.67603 18.9057 5.19683C20.6041 3.79528 21.3369 4.38569 22.324 5.39523Z" stroke="#0A0F13"/>
</svg>
