<svg width="50" height="51" viewBox="0 0 50 51" fill="none" xmlns="http://www.w3.org/2000/svg">
<path d="M42.4066 31.9911H11.5495C9.6559 31.9911 8.12088 33.4845 8.12088 35.3267C8.12088 37.1688 9.6559 38.6622 11.5495 38.6622H45.5714C47.465 38.6622 49 40.1556 49 41.9977C49 43.8399 47.465 45.3333 45.5714 45.3333H11.2857C5.60507 45.3333 1 40.8532 1 35.3267C1 29.8002 5.60507 25.3201 11.2857 25.3201H25.5275M42.1429 38.6622C45.93 38.6622 49 35.6755 49 31.9911C49 28.3068 45.93 25.3201 42.1429 25.3201H36.3407M25.5275 25.3201H36.3407M25.5275 25.3201C26.6644 24.2141 28.7202 21.5436 29.4667 18.3925M20.2527 16.0833C20.2527 10.9517 23.6813 6.33325 25 6.33325C25.9189 6.33325 27.8621 8.57561 28.956 11.6715M20.2527 16.0833C20.2527 20.1885 23.0659 23.9517 24.4725 25.3201M20.2527 16.0833C20.2527 16.8704 20.3562 17.6451 20.5333 18.3926C18.6604 16.4561 16.3614 15.6474 14.1868 15.4178M20.2527 16.0833C20.2527 14.5273 20.5679 13.0187 21.044 11.6716C19.0531 9.94511 16.7905 9.2035 15.5215 8.97352C15.1846 8.91247 14.8495 9.06493 14.7109 9.37798C14.2942 10.3193 13.8425 12.3035 14.1868 15.4178M36.3407 25.3201C39.4082 23.7132 41.8424 19.4361 42.5099 17.0831C42.6329 16.6497 42.3832 16.2178 41.9543 16.0796C40.6148 15.6481 38.295 15.1557 35.8132 15.4177M29.4667 18.3925C29.6438 17.6449 29.7473 16.8704 29.7473 16.0833C29.7473 14.5273 29.4321 13.0186 28.956 11.6715M29.4667 18.3925C31.3396 16.456 33.6386 15.6472 35.8132 15.4177M28.956 11.6715C30.9469 9.94498 33.2095 9.20337 34.4785 8.97339C34.8154 8.91234 35.1505 9.0648 35.2891 9.37785C35.7058 10.3192 36.1575 12.3034 35.8132 15.4177M13.6593 25.3202C10.5918 23.7133 8.15758 19.4363 7.49008 17.0833C7.36711 16.6498 7.61684 16.2179 8.04571 16.0798C9.38518 15.6482 11.705 15.1558 14.1868 15.4178" stroke="#0A0F13"/>
</svg>
